<svg xmlns="http://www.w3.org/2000/svg" viewBox="0 0 64 64" fill="none">
  <rect width="64" height="64" rx="20" fill="#153F37"/>
  <path d="M20.5 29.8c3 0 5.4-2.6 5.4-5.8s-2.4-5.8-5.4-5.8-5.4 2.6-5.4 5.8 2.4 5.8 5.4 5.8Zm23 0c3 0 5.4-2.6 5.4-5.8s-2.4-5.8-5.4-5.8-5.4 2.6-5.4 5.8 2.4 5.8 5.4 5.8ZM31.9 26c3.2 0 5.8-3 5.8-6.6 0-3.7-2.6-6.6-5.8-6.6s-5.8 3-5.8 6.6c0 3.7 2.6 6.6 5.8 6.6Zm.1 7.2c-7.5 0-13.6 4.8-13.6 10.8 0 4.1 3.2 7.2 7.5 7.2 2.1 0 4.3-.8 6.1-2.1 1.8 1.3 4 2.1 6.1 2.1 4.3 0 7.5-3.1 7.5-7.2 0-6-6.1-10.8-13.6-10.8Z" fill="#F5E9CE"/>
</svg>
